<svg width="72" height="78" viewBox="0 0 72 78" fill="none" xmlns="http://www.w3.org/2000/svg">
  <g filter="url(#filter0_d_2400_2)">
    <circle cx="36" cy="36" r="35" fill="#4BFCFF"/>
    <path fill-rule="evenodd" clip-rule="evenodd" d="M31.3398 55.3339C36.1527 53.7302 41.5364 50.0919 46.1211 44.6282C50.7057 39.1644 53.3539 33.2307 54.0974 28.2124C54.8532 23.111 53.5996 19.7051 51.5242 17.9636C49.4487 16.2221 45.8769 15.579 40.9843 17.2092C36.1713 18.8128 30.7876 22.4511 26.203 27.9149C21.6183 33.3787 18.9702 39.3124 18.2266 44.3306C17.4708 49.4321 18.7244 52.8379 20.7999 54.5794C22.8753 56.3209 26.4471 56.9641 31.3398 55.3339ZM17.9877 57.9309C25.3389 64.0992 39.4351 59.4025 49.4725 47.4404C59.5099 35.4782 61.6876 20.7806 54.3364 14.6122C46.9852 8.44381 32.8889 13.1406 22.8515 25.1027C12.8141 37.0648 10.6365 51.7625 17.9877 57.9309Z" fill="black"/>
    <path d="M21.7817 40.8025H42.1619V39.3654H23.8882L21.7817 37.044L21.8119 25.0611C21.8127 24.7596 22.0573 24.5156 22.3588 24.5156H50.2192V31.2222H29.8548V33.7994H50.2192V46.9375C50.2192 47.2395 49.9744 47.4844 49.6724 47.4844H21.7817V40.8025Z" fill="white"/>
    <path fill-rule="evenodd" clip-rule="evenodd" d="M29.8546 33.7994V31.2222H50.2191V24.5156H22.3587C22.0572 24.5156 21.8126 24.7596 21.8118 25.0611L21.7816 37.044L23.8881 39.3654H42.1618V40.8025H21.7816V47.4844H49.6722C49.9743 47.4844 50.2191 47.2395 50.2191 46.9375V33.7994H29.8546ZM17.4066 37.0385L17.4023 38.7285L17.4066 38.7331V51.8594H49.6722C52.3905 51.8594 54.5941 49.6558 54.5941 46.9375V20.1406H22.3587C19.6452 20.1406 17.4436 22.3367 17.4368 25.0501L17.4081 36.4275H17.4066V37.0385Z" fill="black"/>
  </g>
  <defs>
    <filter id="filter0_d_2400_2" x="1" y="1" width="70" height="76" filterUnits="userSpaceOnUse" color-interpolation-filters="sRGB">
      <feFlood flood-opacity="0" result="BackgroundImageFix"/>
      <feColorMatrix in="SourceAlpha" type="matrix" values="0 0 0 0 0 0 0 0 0 0 0 0 0 0 0 0 0 0 127 0" result="hardAlpha"/>
      <feOffset dy="6"/>
      <feComposite in2="hardAlpha" operator="out"/>
      <feColorMatrix type="matrix" values="0 0 0 0 0 0 0 0 0 0 0 0 0 0 0 0 0 0 0.4 0"/>
      <feBlend mode="normal" in2="BackgroundImageFix" result="effect1_dropShadow_2400_2"/>
      <feBlend mode="normal" in="SourceGraphic" in2="effect1_dropShadow_2400_2" result="shape"/>
    </filter>
  </defs>
</svg>
